<svg xmlns="http://www.w3.org/2000/svg" viewBox="0 0 1452 441" role="img" aria-label="wordmark">
  <path fill="#000" fill-rule="evenodd" d="M32 137 L40 129 L62 121 L85 118 L116 118 L158 124 L184 131 L211 141 L264 168 L316 205 L361 246 L361 248 L376 262 L376 264 L384 271 L384 273 L396 286 L441 224 L471 190 L471 188 L478 182 L478 180 L492 167 L492 165 L547 114 L549 114 L575 93 L599 79 L507 69 L432 54 L491 134 L491 138 L488 139 L404 43 L403 36 L407 32 L413 32 L428 40 L451 47 L520 59 L603 67 L754 74 L860 82 L966 96 L994 102 L1003 105 L1010 110 L1008 113 L1005 113 L961 104 L829 90 L626 80 L615 92 L598 126 L586 156 L569 210 L559 252 L552 293 L548 329 L547 367 L541 368 L538 365 L535 350 L536 314 L543 263 L552 220 L564 177 L583 125 L597 96 L580 106 L558 124 L556 124 L553 128 L551 128 L547 133 L545 133 L530 148 L528 148 L485 192 L485 194 L466 214 L437 253 L433 256 L431 261 L411 286 L405 297 L402 299 L398 307 L395 309 L376 339 L358 363 L427 363 L479 370 L544 382 L586 384 L605 381 L605 385 L583 392 L556 393 L533 391 L428 375 L380 374 L347 379 L327 401 L312 409 L305 409 L300 406 L299 396 L302 390 L317 377 L337 369 L342 364 L391 293 L369 271 L369 269 L365 267 L364 264 L362 264 L321 224 L319 224 L309 214 L307 214 L304 210 L283 196 L281 193 L243 169 L199 148 L155 134 L108 127 L85 127 L62 130 L43 137 L37 143 L32 142 Z M644 355 L656 258 L659 208 L656 170 L654 163 L648 154 L650 147 L655 146 L659 148 L667 160 L671 175 L673 199 L671 250 L658 354 L657 369 L659 369 L681 331 L719 276 L723 273 L723 271 L747 242 L747 240 L756 231 L756 229 L782 201 L782 199 L825 155 L827 155 L836 145 L838 145 L852 132 L874 119 L879 119 L881 121 L881 124 L878 127 L859 140 L827 171 L825 171 L767 235 L767 237 L747 260 L730 285 L721 295 L688 344 L664 386 L658 393 L655 394 L650 393 L645 386 Z M758 328 L761 317 L771 298 L789 273 L798 265 L804 265 L807 268 L807 275 L792 292 L775 320 L772 333 L777 337 L796 332 L814 322 L854 293 L862 282 L876 270 L891 262 L904 259 L912 260 L919 265 L920 278 L918 282 L908 293 L892 303 L879 308 L858 310 L855 317 L854 326 L858 333 L871 335 L888 331 L912 320 L938 304 L968 281 L977 263 L1003 225 L973 229 L952 234 L947 237 L941 237 L941 231 L953 224 L970 219 L1014 212 L1023 199 L1033 189 L1033 187 L1050 170 L1057 170 L1060 174 L1060 178 L1038 203 L1034 210 L1087 209 L1105 212 L1108 214 L1108 218 L1058 219 L1024 222 L1005 246 L997 260 L994 262 L973 300 L969 314 L969 326 L972 332 L980 337 L1003 339 L1034 335 L1179 300 L1240 289 L1278 285 L1319 284 L1361 288 L1393 295 L1414 303 L1420 307 L1418 310 L1396 302 L1353 295 L1280 295 L1239 300 L1191 309 L1060 342 L1009 351 L987 351 L976 349 L967 345 L959 337 L955 327 L955 311 L959 299 L940 314 L912 332 L888 343 L871 347 L855 346 L843 337 L840 329 L840 319 L842 313 L815 333 L791 346 L784 348 L773 349 L766 347 L759 339 Z M818 228 L829 214 L838 213 L841 215 L842 223 L830 237 L826 239 L820 238 L818 236 Z M864 300 L873 300 L890 293 L904 282 L904 280 L907 278 L908 272 L899 271 L892 274 L876 286 L876 288 Z"/>
</svg>
