<svg xmlns="http://www.w3.org/2000/svg" viewBox="0 0 2052 413" role="img" aria-label="Viet's note wordmark">
  <g transform="matrix(1 0 -0.176327 1 67.004 0)">
  <path fill="#000" fill-rule="evenodd" d="M32 79 L37 75 L53 75 L67 81 L87 97 L106 124 L128 173 L151 240 L183 346 L183 358 L189 358 L189 351 L191 348 L203 335 L215 318 L220 314 L232 297 L237 293 L241 286 L256 270 L256 268 L273 250 L273 248 L302 217 L302 215 L313 205 L313 203 L325 192 L325 190 L341 175 L341 173 L393 121 L395 121 L406 109 L408 109 L416 100 L418 100 L424 93 L438 83 L443 77 L489 43 L509 32 L520 32 L523 35 L523 41 L520 44 L504 52 L486 66 L481 68 L478 72 L452 91 L448 96 L446 96 L442 101 L440 101 L435 107 L433 107 L398 141 L396 141 L362 175 L362 177 L360 177 L360 179 L342 196 L342 198 L329 210 L329 212 L296 247 L296 249 L289 255 L285 262 L278 268 L278 270 L254 297 L254 299 L244 309 L221 340 L216 344 L216 352 L218 353 L205 353 L205 360 L187 381 L175 381 L172 379 L166 362 L166 353 L158 353 L161 352 L161 341 L130 238 L109 177 L89 133 L76 113 L64 101 L50 93 L34 90 L32 88 Z M978 209 L992 194 L1001 178 L1008 148 L1014 143 L1025 144 L1026 162 L1013 188 L988 215 L978 216 Z M353 345 L369 313 L372 311 L385 291 L397 279 L405 280 L409 285 L409 289 L384 322 L371 346 L369 354 L370 361 L371 363 L379 366 L399 364 L440 349 L503 315 L508 307 L518 297 L537 284 L556 277 L575 276 L589 281 L596 291 L596 300 L591 311 L577 323 L559 332 L534 338 L510 338 L510 353 L515 360 L525 364 L549 364 L568 360 L596 350 L638 330 L639 328 L647 325 L673 308 L677 307 L687 299 L691 298 L709 273 L741 235 L654 235 L649 231 L649 225 L652 222 L753 221 L765 205 L812 152 L823 152 L826 156 L825 163 L774 221 L882 221 L887 224 L887 231 L884 234 L763 234 L747 252 L747 254 L741 259 L734 270 L728 275 L695 321 L686 339 L684 347 L685 358 L693 365 L705 368 L731 368 L754 365 L800 353 L844 334 L850 334 L852 336 L852 343 L845 348 L807 364 L766 376 L739 381 L694 381 L680 376 L671 368 L667 358 L668 340 L676 322 L655 335 L634 345 L633 347 L599 363 L568 374 L540 379 L517 377 L503 371 L495 363 L492 357 L491 341 L493 335 L432 366 L407 375 L384 380 L374 380 L363 377 L355 370 L353 366 Z M1170 366 L1216 300 L1223 286 L1229 282 L1234 283 L1237 286 L1237 294 L1222 316 L1221 320 L1246 299 L1271 285 L1288 283 L1293 285 L1298 290 L1299 304 L1297 310 L1283 332 L1274 351 L1274 361 L1279 363 L1297 359 L1330 341 L1335 336 L1339 335 L1360 320 L1369 307 L1380 296 L1393 287 L1410 280 L1429 279 L1442 284 L1452 294 L1454 306 L1466 310 L1485 310 L1508 303 L1532 289 L1535 283 L1539 280 L1542 274 L1566 246 L1574 234 L1497 235 L1492 231 L1492 225 L1498 221 L1586 221 L1589 215 L1594 211 L1609 190 L1614 186 L1614 184 L1641 152 L1651 152 L1655 158 L1654 163 L1607 221 L1696 221 L1701 225 L1700 232 L1697 234 L1596 234 L1566 270 L1563 276 L1558 280 L1556 285 L1546 296 L1526 326 L1516 349 L1516 360 L1520 365 L1526 367 L1537 367 L1550 364 L1567 358 L1587 348 L1618 328 L1623 314 L1641 293 L1659 282 L1670 279 L1685 279 L1694 283 L1702 293 L1703 302 L1697 316 L1689 324 L1677 332 L1655 340 L1632 341 L1632 349 L1637 359 L1644 364 L1654 367 L1679 368 L1707 364 L1744 354 L1824 326 L1865 317 L1908 316 L1921 318 L1935 322 L1952 332 L1952 339 L1948 342 L1942 342 L1928 334 L1911 330 L1884 329 L1861 332 L1818 343 L1729 373 L1689 381 L1652 381 L1640 378 L1626 370 L1621 365 L1617 358 L1614 344 L1590 360 L1560 374 L1538 380 L1518 380 L1507 375 L1501 368 L1498 360 L1500 341 L1507 325 L1515 313 L1514 312 L1503 318 L1487 322 L1472 323 L1453 320 L1450 332 L1436 354 L1426 364 L1413 373 L1398 379 L1385 381 L1376 380 L1367 377 L1360 372 L1354 364 L1352 358 L1353 339 L1330 355 L1302 370 L1282 376 L1271 376 L1265 374 L1258 368 L1256 363 L1256 352 L1263 334 L1280 306 L1281 299 L1274 298 L1256 307 L1254 310 L1240 319 L1236 324 L1234 324 L1201 355 L1201 357 L1187 370 L1183 376 L1174 377 L1171 375 Z M421 238 L428 230 L442 230 L447 236 L447 245 L440 253 L426 253 L421 247 Z M936 365 L938 361 L948 353 L984 340 L962 319 L959 313 L959 302 L967 290 L987 280 L1018 279 L1027 282 L1030 286 L1029 290 L1025 293 L1014 290 L999 290 L985 295 L978 301 L977 310 L979 314 L997 330 L999 335 L1062 319 L1068 322 L1068 327 L1066 330 L1005 345 L1003 355 L998 364 L989 372 L974 379 L966 381 L943 380 L936 373 Z M516 325 L536 325 L563 315 L571 310 L578 302 L578 292 L572 289 L565 289 L556 291 L544 297 L534 304 L522 316 Z M1635 327 L1635 329 L1646 329 L1671 320 L1684 309 L1687 303 L1687 296 L1682 292 L1672 292 L1661 297 L1644 312 Z M1369 343 L1370 358 L1378 366 L1395 366 L1411 357 L1428 337 L1436 319 L1437 312 L1430 307 L1427 301 L1428 293 L1411 295 L1392 307 L1380 320 Z M951 366 L952 369 L965 369 L974 366 L984 358 L987 351 L969 356 Z"/>
  </g>
</svg>
